HIERARCHY
ROOT Hips
{
	OFFSET 0.000000 0.000000 0.000000
	CHANNELS 6 Xposition Yposition Zposition Zrotation Yrotation Xrotation 
	JOINT LHipJoint
	{
		OFFSET 0.000000 0.000000 0.000000
		CHANNELS 3 Zrotation Yrotation Xrotation
		JOINT LeftUpLeg
		{
			OFFSET 1.363060 -1.794630 0.839290
			CHANNELS 3 Zrotation Yrotation Xrotation
			JOINT LeftLeg
			{
				OFFSET 2.448110 -6.726130 0.000000
				CHANNELS 3 Zrotation Yrotation Xrotation
				JOINT LeftFoot
				{
					OFFSET 2.562200 -7.039590 0.000000
					CHANNELS 3 Zrotation Yrotation Xrotation
					JOINT LeftToeBase
					{
						OFFSET 0.157640 -0.433110 2.322550
						CHANNELS 3 Zrotation Yrotation Xrotation
						End Site
						{
							OFFSET 0.000000 0.000000 0.000000
						}
					}
				}
			}
		}
	}
	JOINT RHipJoint
	{
		OFFSET 0.000000 0.000000 0.000000
		CHANNELS 3 Zrotation Yrotation Xrotation
		JOINT RightUpLeg
		{
			OFFSET -1.305520 -1.794630 0.839290
			CHANNELS 3 Zrotation Yrotation Xrotation
			JOINT RightLeg
			{
				OFFSET -2.542530 -6.985550 0.000000
				CHANNELS 3 Zrotation Yrotation Xrotation
				JOINT RightFoot
				{
					OFFSET -2.568260 -7.056230 0.000000
					CHANNELS 3 Zrotation Yrotation Xrotation
					JOINT RightToeBase
					{
						OFFSET -0.164730 -0.452590 2.363150
						CHANNELS 3 Zrotation Yrotation Xrotation
						End Site
						{
							OFFSET 0.000000 0.000000 0.000000
						}
					}
				}
			}
		}
	}
	JOINT LowerBack
	{
		OFFSET 0.000000 0.000000 0.000000
		CHANNELS 3 Zrotation Yrotation Xrotation
		JOINT Spine
		{
			OFFSET 0.028270 2.035590 -0.193380
			CHANNELS 3 Zrotation Yrotation Xrotation
			JOINT Spine1
			{
				OFFSET 0.056720 2.048850 -0.042750
				CHANNELS 3 Zrotation Yrotation Xrotation
				JOINT Neck
				{
					OFFSET 0.000000 0.000000 0.000000
					CHANNELS 3 Zrotation Yrotation Xrotation
					JOINT Neck1
					{
						OFFSET -0.054170 1.746240 0.172020
						CHANNELS 3 Zrotation Yrotation Xrotation
						JOINT Head
						{
							OFFSET 0.104070 1.761360 -0.123970
							CHANNELS 3 Zrotation Yrotation Xrotation
							End Site
							{
								OFFSET 0.000000 0.000000 0.000000
							}
						}
					}
				}
				JOINT LeftShoulder
				{
					OFFSET 0.000000 0.000000 0.000000
					CHANNELS 3 Zrotation Yrotation Xrotation
					JOINT LeftArm
					{
						OFFSET 3.362410 1.200890 -0.311210
						CHANNELS 3 Zrotation Yrotation Xrotation
						JOINT LeftForeArm
						{
							OFFSET 4.983000 -0.000000 -0.000000
							CHANNELS 3 Zrotation Yrotation Xrotation
							JOINT LeftHand
							{
								OFFSET 3.483560 -0.000000 -0.000000
								CHANNELS 3 Zrotation Yrotation Xrotation
								JOINT LeftFingerBase
								{
									OFFSET 0.000000 0.000000 0.000000
									CHANNELS 3 Zrotation Yrotation Xrotation
									JOINT LeftHandIndex1
									{
										OFFSET 0.715260 -0.000000 -0.000000
										CHANNELS 3 Zrotation Yrotation Xrotation
										End Site
										{
											OFFSET 0.000000 0.000000 0.000000
										}
									}
								}
								JOINT LThumb
								{
									OFFSET 0.000000 0.000000 0.000000
									CHANNELS 3 Zrotation Yrotation Xrotation
									End Site
									{
										OFFSET 0.000000 0.000000 0.000000
									}
								}
							}
						}
					}
				}
				JOINT RightShoulder
				{
					OFFSET 0.000000 0.000000 0.000000
					CHANNELS 3 Zrotation Yrotation Xrotation
					JOINT RightArm
					{
						OFFSET -3.136600 1.374050 -0.404650
						CHANNELS 3 Zrotation Yrotation Xrotation
						JOINT RightForeArm
						{
							OFFSET -5.241900 -0.000000 -0.000000
							CHANNELS 3 Zrotation Yrotation Xrotation
							JOINT RightHand
							{
								OFFSET -3.444170 -0.000000 -0.000000
								CHANNELS 3 Zrotation Yrotation Xrotation
								JOINT RightFingerBase
								{
									OFFSET 0.000000 0.000000 0.000000
									CHANNELS 3 Zrotation Yrotation Xrotation
									JOINT RightHandIndex1
									{
										OFFSET -0.622530 -0.000000 -0.000000
										CHANNELS 3 Zrotation Yrotation Xrotation
										End Site
										{
											OFFSET 0.000000 0.000000 0.000000
										}
									}
								}
								JOINT RThumb
								{
									OFFSET 0.000000 0.000000 0.000000
									CHANNELS 3 Zrotation Yrotation Xrotation
									End Site
									{
										OFFSET 0.000000 0.000000 0.000000
									}
								}
							}
						}
					}
				}
			}
		}
	}
}
MOTION
Frames: 12
Frame Time: 0.008333
0.721841 17.740242 5.554185 0.030786 -3.379498 -2.551622 2.192789 5.603251 4.604400 -23.186406 -10.684499 -8.003832 1.605935 7.341940 27.504039 0.157458 -0.244454 -2.116084 0.047700 -1.409300 -3.875800 -2.447856 -5.614287 4.617075 22.412499 10.992179 -15.244013 -4.969187 -11.396260 40.366240 0.714639 -6.006736 -11.372709 -0.195000 -2.843800 7.844300 -2.133703 -1.242375 10.756352 6.037434 -3.198200 16.098679 5.387080 -0.906013 -14.444282 0.098209 2.070085 -16.859054 -2.406987 3.469184 12.528130 -1.063500 1.439400 6.207200 -2.226883 1.556728 -1.072066 -89.225187 19.790478 12.711890 26.618248 -35.447499 -7.875963 0.330242 -0.012857 -6.324248 17.277647 49.353207 13.053500 -7.125000 0.000000 0.000000 -50.825400 76.247300 -39.199600 1.194167 -1.410985 -0.226241 82.652492 -21.281710 -0.232907 -143.330287 46.852145 -102.223373 -1.160949 1.244866 20.816663 -16.097386 2.527300 -0.458200 7.125000 0.000000 0.000000 9.264400 -28.114100 3.852000 
0.738397 17.765864 5.551623 0.008833 -3.677508 -2.634708 2.192266 5.607160 4.603836 -23.242329 -10.678645 -7.801394 1.594553 7.318721 27.447221 0.110309 -0.013613 -2.244945 0.039800 -1.287500 -3.540100 -2.456627 -5.622053 4.612967 22.645909 10.586338 -15.257031 -5.032894 -11.454379 40.619074 0.597176 -5.567954 -11.389251 -0.279900 -3.402600 9.401700 -2.277788 -1.205469 10.958985 6.057524 -3.175126 16.012020 5.472145 -0.876921 -14.600198 -0.041825 2.143645 -16.871196 -2.222769 3.590901 12.729832 -0.982100 1.507900 6.255200 -2.237451 1.573815 -1.069582 -89.326233 19.793120 12.262722 26.408522 -35.232672 -7.750486 0.329939 -0.018232 -5.931379 17.476003 48.925964 13.129400 -7.125000 0.000000 0.000000 -49.160300 76.100200 -37.665600 1.212570 -1.407850 -0.217919 81.739723 -21.357128 0.913050 -144.234609 46.309069 -102.894015 -1.193025 1.217806 21.550587 -16.519577 1.687419 -0.260500 7.125000 0.000000 0.000000 9.028400 -28.919800 3.577000 
0.751602 17.776014 5.542458 -0.273210 -4.077315 -2.615620 2.191635 5.613994 4.602210 -22.969801 -10.723254 -7.785495 1.578665 7.307904 27.382719 0.053641 0.259176 -2.315338 0.026500 -1.051700 -2.891000 -2.465559 -5.620313 4.609911 23.218810 10.417369 -15.324960 -5.090280 -11.499669 40.852012 0.601920 -5.616625 -11.478454 -0.258900 -3.273700 9.041700 -2.217892 -1.110757 11.038794 6.174582 -3.047939 15.968049 5.450287 -0.814481 -14.667261 0.031491 2.013879 -17.221273 -2.262125 3.442010 13.146228 -1.012400 1.434200 6.419100 -2.255131 1.585630 -1.063650 -89.347772 19.902989 12.065831 26.479804 -35.315633 -7.793823 0.329697 -0.018995 -5.856317 17.925651 48.789028 13.456700 -7.125000 0.000000 0.000000 -48.315300 76.204300 -37.054200 1.211943 -1.389116 -0.200774 80.946026 -21.042365 1.900495 -144.828949 45.941292 -103.332486 -1.213277 1.226006 22.389103 -17.029214 1.518723 -0.228500 7.125000 0.000000 0.000000 8.671000 -29.072800 3.400500 
0.761850 17.768820 5.522454 -0.477082 -4.569996 -2.536946 2.186774 5.615446 4.601098 -22.738053 -10.656876 -7.973219 1.583192 7.334862 27.424363 0.015053 0.457591 -2.393817 0.024400 -1.008300 -2.771500 -2.485960 -5.618766 4.606464 23.794500 10.221889 -15.376035 -5.159672 -11.558446 41.140241 0.757060 -6.263100 -11.644329 -0.168900 -2.647900 7.299800 -2.144975 -0.953052 11.074261 6.126421 -2.818166 15.862952 5.325401 -0.706485 -14.769914 -0.012427 2.113927 -16.601809 -1.882984 3.488228 12.639030 -0.913300 1.492700 6.176200 -2.251738 1.571571 -1.063748 -89.101903 20.089113 12.116215 26.629426 -35.467472 -7.874460 0.328058 -0.009124 -6.008641 17.319764 49.283452 13.073500 -7.125000 0.000000 0.000000 -50.517300 76.224700 -38.918800 1.238871 -1.388271 -0.203295 80.433141 -20.666451 2.787475 -145.310087 45.642094 -103.688653 -1.227128 1.258253 23.626635 -17.575494 1.620886 -0.268600 7.125000 0.000000 0.000000 8.269300 -28.959200 3.262400 
0.773084 17.762809 5.508066 -0.483601 -5.033610 -2.486673 2.180148 5.613424 4.608603 -22.738964 -10.465945 -8.215914 1.613100 7.393058 27.587092 0.010967 0.524573 -2.584683 0.018500 -0.879100 -2.416200 -2.514209 -5.624974 4.608346 24.144923 9.851849 -15.419845 -5.241952 -11.629384 41.464767 0.922548 -6.877441 -11.558789 -0.086200 -1.893800 5.212300 -2.163804 -0.793147 10.929889 5.921418 -2.602339 15.969803 5.206241 -0.609970 -14.665049 -0.084215 2.250596 -16.442149 -1.400191 3.603063 12.332914 -0.771400 1.584100 6.062600 -2.234503 1.549641 -1.068607 -88.767164 19.783008 12.258336 26.537277 -35.368225 -7.809623 0.325546 -0.000019 -6.051186 16.534836 49.804869 12.547900 -7.125000 0.000000 0.000000 -52.946800 76.172900 -40.929500 1.274326 -1.372340 -0.206724 80.005398 -20.005589 3.654300 -145.690527 45.402813 -103.980250 -1.212020 1.303282 24.505385 -17.696191 2.198503 -0.431400 7.125000 0.000000 0.000000 8.144800 -28.383400 3.324700 
0.785304 17.747338 5.499493 -0.114807 -5.259099 -2.510239 2.168061 5.605599 4.619065 -23.167947 -10.315631 -8.318919 1.648579 7.439644 27.761902 0.033100 0.462545 -2.770537 0.008400 -0.593200 -1.630200 -2.548538 -5.636909 4.610734 24.020231 9.332830 -15.554503 -5.333495 -11.721644 41.823685 0.943619 -6.924751 -11.404433 -0.068400 -1.686800 4.640700 -2.396585 -0.770391 10.673715 5.440864 -2.582348 16.162164 5.190172 -0.602774 -14.440509 0.112535 2.319757 -16.631071 -1.286336 3.653634 12.408251 -0.761800 1.624400 6.117300 -2.208788 1.533331 -1.074337 -88.522541 19.321987 12.009919 26.303757 -35.127003 -7.664020 0.324170 0.002742 -5.928178 16.725744 49.529163 12.649300 -7.125000 0.000000 0.000000 -51.794600 76.108900 -39.889900 1.320824 -1.339506 -0.205465 79.598011 -19.194056 4.594191 -145.934403 45.249107 -104.185612 -1.162624 1.354519 25.527899 -17.330283 3.066943 -0.656500 7.125000 0.000000 0.000000 8.357600 -27.523400 3.584900 
0.802155 17.746155 5.491314 0.118190 -5.369776 -2.513029 2.160369 5.603654 4.632940 -23.489973 -10.342973 -8.297894 1.651363 7.438236 27.780596 0.004781 0.616967 -2.953071 0.015000 -0.790900 -2.173600 -2.563938 -5.653554 4.619857 23.953536 8.775845 -15.658186 -5.386527 -11.770423 42.018893 0.923701 -6.778447 -11.117620 -0.060700 -1.590200 4.374300 -2.530528 -0.837795 10.301405 5.171187 -2.683068 16.438018 5.168591 -0.661107 -14.081533 -0.148963 2.300958 -16.577658 -0.962978 3.607233 12.029453 -0.650100 1.611400 6.006900 -2.186617 1.484813 -1.085697 -88.519685 18.687124 11.448218 26.039878 -34.861604 -7.503221 0.320963 -0.000749 -5.834374 16.972223 49.403770 12.823900 -7.125000 0.000000 0.000000 -51.163100 76.144700 -39.389400 1.358407 -1.322163 -0.212471 78.898382 -18.297630 5.871490 -146.237337 45.046011 -104.442034 -1.102576 1.399313 26.298606 -16.829943 4.022571 -0.885000 7.125000 0.000000 0.000000 8.657200 -26.586000 3.909200 
0.815459 17.745071 5.473083 0.138591 -5.508547 -2.418135 2.155338 5.600000 4.634574 -23.517237 -10.317396 -8.434459 1.643271 7.431764 27.748397 0.024369 0.544990 -3.000180 0.011300 -0.685900 -1.885000 -2.570321 -5.660840 4.618514 24.129191 8.365797 -15.785373 -5.410134 -11.785601 42.091174 0.982022 -6.885692 -10.654131 -0.039200 -1.277700 3.513200 -2.539259 -0.832337 10.163092 5.098847 -2.670891 16.443678 5.116774 -0.657073 -13.998708 -0.386966 2.310720 -16.062425 -0.773352 3.591449 11.447357 -0.582800 1.607800 5.769400 -2.182316 1.445973 -1.091353 -88.471693 18.403976 11.258001 26.015754 -34.843697 -7.484330 0.318766 -0.000316 -5.774876 17.021312 49.691042 12.917300 -7.125000 0.000000 0.000000 -52.160100 76.310800 -40.390300 1.383356 -1.320876 -0.215260 78.336738 -17.677088 7.228892 -146.493357 44.883532 -104.649570 -1.086032 1.424422 27.388073 -16.945390 4.239649 -0.951500 7.125000 0.000000 0.000000 8.564100 -26.359400 3.912300 
0.823047 17.757192 5.456035 0.135846 -5.741199 -2.368140 2.149384 5.595913 4.629921 -23.502147 -10.169289 -8.555539 1.632262 7.420887 27.699688 0.008267 0.617768 -2.994405 0.019400 -0.898400 -2.469300 -2.569518 -5.670936 4.611936 24.356507 8.041329 -15.718379 -5.382932 -11.742401 41.951587 1.044804 -6.995321 -10.132664 -0.035200 -1.210500 3.328200 -2.624718 -0.724503 10.220681 5.117614 -2.546154 16.343636 5.135258 -0.583205 -14.077916 -0.391170 2.346024 -15.672138 -0.924812 3.631900 11.180947 -0.627700 1.618200 5.641400 -2.193044 1.429816 -1.091995 -88.413696 18.291945 11.405722 26.028515 -34.858666 -7.492799 0.319936 0.000351 -5.768043 17.031849 49.666330 12.920000 -7.125000 0.000000 0.000000 -52.062200 76.302000 -40.298700 1.390154 -1.312528 -0.205527 77.784480 -17.160885 8.762806 -146.699331 44.762812 -104.814187 -1.095662 1.401488 29.010144 -17.058061 3.325550 -0.724200 7.125000 0.000000 0.000000 8.549100 -27.227500 3.729000 
0.829452 17.758572 5.447658 0.072135 -6.037150 -2.327101 2.143819 5.596302 4.629394 -23.414377 -9.875049 -8.743298 1.644242 7.449266 27.767811 0.019630 0.604187 -3.111779 0.040800 -1.303200 -3.583400 -2.570439 -5.672428 4.605809 24.653716 7.968126 -15.497594 -5.336238 -11.669577 41.729440 1.071081 -6.984700 -9.695728 -0.082000 -1.847500 5.084400 -2.581085 -0.645783 10.145673 5.082690 -2.424238 16.222520 5.043723 -0.526700 -14.109047 -0.506860 2.400055 -15.164482 -0.834767 3.687573 10.942470 -0.593600 1.650400 5.497800 -2.193642 1.409730 -1.091347 -88.293051 18.277986 11.603825 25.993582 -34.818074 -7.474124 0.319973 0.002914 -5.786969 17.386252 49.500155 13.169100 -7.125000 0.000000 0.000000 -51.184500 76.357800 -39.606000 1.399340 -1.306966 -0.197690 77.268094 -16.793547 10.285073 -146.764504 44.732586 -104.888180 -1.079131 1.389670 30.450490 -16.849719 2.866135 -0.600600 7.125000 0.000000 0.000000 8.735800 -27.656900 3.722800 
0.833394 17.753152 5.434256 -0.058831 -6.285128 -2.314166 2.142639 5.594853 4.614960 -23.234069 -9.678392 -8.916875 1.657847 7.482736 27.841041 0.045514 0.500130 -3.096171 0.032100 -1.156200 -3.178700 -2.566691 -5.668414 4.584587 25.030292 7.942708 -15.158614 -5.272414 -11.573837 41.429110 1.134174 -7.096102 -9.160520 -0.168500 -2.644800 7.291200 -2.543105 -0.566713 10.442993 5.130375 -2.294895 15.796649 4.994174 -0.450613 -14.515956 -0.580839 2.389923 -14.612085 -0.788754 3.681929 11.149577 -0.574900 1.656200 5.453500 -2.207365 1.425694 -1.078485 -88.194447 18.554030 11.747821 25.959674 -34.775662 -7.455701 0.321058 0.006180 -6.027048 17.739068 49.211773 13.391500 -7.125000 0.000000 0.000000 -49.863900 76.346700 -38.480500 1.396545 -1.302642 -0.174131 76.753681 -16.810375 11.810756 -146.690801 44.800651 -104.864912 -1.050308 1.405279 31.707224 -16.807628 3.043471 -0.649600 7.125000 0.000000 0.000000 8.752400 -27.465700 3.769900 
0.839307 17.748323 5.420558 -0.177713 -6.513304 -2.258366 2.135292 5.598131 4.619371 -23.088102 -9.549111 -9.165857 1.678064 7.531415 27.954997 0.033335 0.567753 -3.107402 0.053500 -1.492000 -4.103600 -2.565470 -5.667169 4.580854 25.332542 7.747474 -14.978641 -5.196849 -11.467924 41.087168 1.108032 -6.886982 -8.724676 -0.322700 -3.651400 10.097900 -2.374650 -0.514217 10.300052 5.029947 -2.182463 15.823856 4.815999 -0.415607 -14.439064 -0.681119 2.350095 -14.573390 -0.556488 3.616326 11.155283 -0.507900 1.636800 5.443500 -2.191284 1.404638 -1.078102 -87.968317 18.413367 11.986645 26.180905 -35.020432 -7.586218 0.321836 0.013941 -6.395752 17.519850 49.362660 13.245100 -7.125000 0.000000 0.000000 -50.561400 76.335300 -39.058100 1.395915 -1.284783 -0.161089 76.495607 -16.179934 13.267680 -146.313008 45.072769 -104.622608 -1.031693 1.421416 32.964493 -16.950704 3.110058 -0.677600 7.125000 0.000000 0.000000 8.642700 -27.382900 3.738700 
